<svg xmlns="http://www.w3.org/2000/svg" xmlns:xlink="http://www.w3.org/1999/xlink" version="1.1" class="marks" width="306" height="230" viewBox="0 0 306 230"><rect width="306" height="230" fill="white"/><g fill="none" stroke-miterlimit="10" transform="translate(47,10)"><g class="mark-group role-frame root" role="graphics-object" aria-roledescription="group mark container"><g transform="translate(0,0)"><path class="background" aria-hidden="true" d="M0.5,0.5h250v180h-250Z" stroke="#ddd"/><g><g class="mark-group role-axis" role="graphics-symbol" aria-roledescription="axis" aria-label="X-axis titled 'Number of source buildings' for a linear scale with values from 2 to 16"><g transform="translate(0.5,180.5)"><path class="background" aria-hidden="true" d="M0,0h0v0h0Z" pointer-events="none"/><g><g class="mark-rule role-axis-tick" pointer-events="none"><line transform="translate(0,0)" x2="0" y2="5" stroke="#888" stroke-width="1" opacity="1"/><line transform="translate(36,0)" x2="0" y2="5" stroke="#888" stroke-width="1" opacity="1"/><line transform="translate(71,0)" x2="0" y2="5" stroke="#888" stroke-width="1" opacity="1"/><line transform="translate(107,0)" x2="0" y2="5" stroke="#888" stroke-width="1" opacity="1"/><line transform="translate(143,0)" x2="0" y2="5" stroke="#888" stroke-width="1" opacity="1"/><line transform="translate(179,0)" x2="0" y2="5" stroke="#888" stroke-width="1" opacity="1"/><line transform="translate(214,0)" x2="0" y2="5" stroke="#888" stroke-width="1" opacity="1"/><line transform="translate(250,0)" x2="0" y2="5" stroke="#888" stroke-width="1" opacity="1"/></g><g class="mark-text role-axis-label" pointer-events="none"><text text-anchor="start" transform="translate(0,15)" font-family="sans-serif" font-size="10px" fill="#000" opacity="1">2</text><text text-anchor="middle" transform="translate(35.714285714285715,15)" font-family="sans-serif" font-size="10px" fill="#000" opacity="1">4</text><text text-anchor="middle" transform="translate(71.42857142857143,15)" font-family="sans-serif" font-size="10px" fill="#000" opacity="1">6</text><text text-anchor="middle" transform="translate(107.14285714285714,15)" font-family="sans-serif" font-size="10px" fill="#000" opacity="1">8</text><text text-anchor="middle" transform="translate(142.85714285714286,15)" font-family="sans-serif" font-size="10px" fill="#000" opacity="1">10</text><text text-anchor="middle" transform="translate(178.57142857142858,15)" font-family="sans-serif" font-size="10px" fill="#000" opacity="1">12</text><text text-anchor="middle" transform="translate(214.28571428571428,15)" font-family="sans-serif" font-size="10px" fill="#000" opacity="1">14</text><text text-anchor="end" transform="translate(250,15)" font-family="sans-serif" font-size="10px" fill="#000" opacity="1">16</text></g><g class="mark-rule role-axis-domain" pointer-events="none"><line transform="translate(0,0)" x2="250" y2="0" stroke="#888" stroke-width="1" opacity="1"/></g><g class="mark-text role-axis-title" pointer-events="none"><text text-anchor="middle" transform="translate(125,32)" font-family="sans-serif" font-size="14px" font-weight="bold" fill="#000" opacity="1">Number of source buildings</text></g></g><path class="foreground" aria-hidden="true" d="" pointer-events="none" display="none"/></g></g><g class="mark-group role-axis" role="graphics-symbol" aria-roledescription="axis" aria-label="Y-axis titled 'Validation loss [%]' for a linear scale with values from 0 to 100"><g transform="translate(0.5,0.5)"><path class="background" aria-hidden="true" d="M0,0h0v0h0Z" pointer-events="none"/><g><g class="mark-rule role-axis-tick" pointer-events="none"><line transform="translate(0,180)" x2="-5" y2="0" stroke="#888" stroke-width="1" opacity="1"/><line transform="translate(0,144)" x2="-5" y2="0" stroke="#888" stroke-width="1" opacity="1"/><line transform="translate(0,108)" x2="-5" y2="0" stroke="#888" stroke-width="1" opacity="1"/><line transform="translate(0,72)" x2="-5" y2="0" stroke="#888" stroke-width="1" opacity="1"/><line transform="translate(0,36)" x2="-5" y2="0" stroke="#888" stroke-width="1" opacity="1"/><line transform="translate(0,0)" x2="-5" y2="0" stroke="#888" stroke-width="1" opacity="1"/></g><g class="mark-text role-axis-label" pointer-events="none"><text text-anchor="end" transform="translate(-7,183)" font-family="sans-serif" font-size="10px" fill="#000" opacity="1">0</text><text text-anchor="end" transform="translate(-7,147)" font-family="sans-serif" font-size="10px" fill="#000" opacity="1">20</text><text text-anchor="end" transform="translate(-7,111)" font-family="sans-serif" font-size="10px" fill="#000" opacity="1">40</text><text text-anchor="end" transform="translate(-7,75)" font-family="sans-serif" font-size="10px" fill="#000" opacity="1">60</text><text text-anchor="end" transform="translate(-7,38.99999999999999)" font-family="sans-serif" font-size="10px" fill="#000" opacity="1">80</text><text text-anchor="end" transform="translate(-7,3)" font-family="sans-serif" font-size="10px" fill="#000" opacity="1">100</text></g><g class="mark-rule role-axis-domain" pointer-events="none"><line transform="translate(0,180)" x2="0" y2="-180" stroke="#888" stroke-width="1" opacity="1"/></g><g class="mark-text role-axis-title" pointer-events="none"><text text-anchor="middle" transform="translate(-27.169967651367188,90) rotate(-90) translate(0,-3)" font-family="sans-serif" font-size="14px" font-weight="bold" fill="#000" opacity="1">Validation loss [%]</text></g></g><path class="foreground" aria-hidden="true" d="" pointer-events="none" display="none"/></g></g><g class="mark-group role-scope layer_0_layer_0_pathgroup" role="graphics-object" aria-roledescription="group mark container"><g transform="translate(0,0)"><path class="background" aria-hidden="true" d="M0,0h250v180h-250Z"/><g><g class="mark-line role-mark layer_0_layer_0_marks" role="graphics-object" aria-roledescription="line mark container"><path aria-label="n_targets_num: 2; val_loss: 41.0638463011; mode: best_percent" role="graphics-symbol" aria-roledescription="line mark" d="M0,106.085L35.714,104.487L107.143,99.01L250,91.952" stroke="#1bb1a0" stroke-width="1.2"/></g></g><path class="foreground" aria-hidden="true" d="" display="none"/></g><g transform="translate(0,0)"><path class="background" aria-hidden="true" d="M0,0h250v180h-250Z"/><g><g class="mark-line role-mark layer_0_layer_0_marks" role="graphics-object" aria-roledescription="line mark container"><path aria-label="n_targets_num: 2; val_loss: 87.435467142; mode: worst_percent" role="graphics-symbol" aria-roledescription="line mark" d="M0,22.616L35.714,48.932L107.143,52.887L250,74.098" stroke="#0084ff" stroke-width="1.2"/></g></g><path class="foreground" aria-hidden="true" d="" display="none"/></g></g><g class="mark-symbol role-mark layer_0_layer_1_marks" role="graphics-object" aria-roledescription="symbol mark container"><path aria-label="n_targets_num: 2; val_loss: 41.0638463011; mode: best_percent" role="graphics-symbol" aria-roledescription="point" transform="translate(0,106.0850766579449)" d="M3.536,0A3.536,3.536,0,1,1,-3.536,0A3.536,3.536,0,1,1,3.536,0" fill="#1bb1a0" stroke-width="2" opacity="1"/><path aria-label="n_targets_num: 2; val_loss: 87.435467142; mode: worst_percent" role="graphics-symbol" aria-roledescription="point" transform="translate(0,22.61615914436005)" d="M3.536,0A3.536,3.536,0,1,1,-3.536,0A3.536,3.536,0,1,1,3.536,0" fill="#0084ff" stroke-width="2" opacity="1"/><path aria-label="n_targets_num: 4; val_loss: 41.9514305285; mode: best_percent" role="graphics-symbol" aria-roledescription="point" transform="translate(35.714285714285715,104.48742504861738)" d="M3.536,0A3.536,3.536,0,1,1,-3.536,0A3.536,3.536,0,1,1,3.536,0" fill="#1bb1a0" stroke-width="2" opacity="1"/><path aria-label="n_targets_num: 4; val_loss: 72.8155173921; mode: worst_percent" role="graphics-symbol" aria-roledescription="point" transform="translate(35.714285714285715,48.93206869423516)" d="M3.536,0A3.536,3.536,0,1,1,-3.536,0A3.536,3.536,0,1,1,3.536,0" fill="#0084ff" stroke-width="2" opacity="1"/><path aria-label="n_targets_num: 8; val_loss: 44.994418936; mode: best_percent" role="graphics-symbol" aria-roledescription="point" transform="translate(107.14285714285714,99.01004591514884)" d="M3.536,0A3.536,3.536,0,1,1,-3.536,0A3.536,3.536,0,1,1,3.536,0" fill="#1bb1a0" stroke-width="2" opacity="1"/><path aria-label="n_targets_num: 8; val_loss: 70.6180662714; mode: worst_percent" role="graphics-symbol" aria-roledescription="point" transform="translate(107.14285714285714,52.887480711553835)" d="M3.536,0A3.536,3.536,0,1,1,-3.536,0A3.536,3.536,0,1,1,3.536,0" fill="#0084ff" stroke-width="2" opacity="1"/><path aria-label="n_targets_num: 16; val_loss: 48.9153298032; mode: best_percent" role="graphics-symbol" aria-roledescription="point" transform="translate(250,91.95240635420804)" d="M3.536,0A3.536,3.536,0,1,1,-3.536,0A3.536,3.536,0,1,1,3.536,0" fill="#1bb1a0" stroke-width="2" opacity="1"/><path aria-label="n_targets_num: 16; val_loss: 58.8346523018; mode: worst_percent" role="graphics-symbol" aria-roledescription="point" transform="translate(250,74.09762585678936)" d="M3.536,0A3.536,3.536,0,1,1,-3.536,0A3.536,3.536,0,1,1,3.536,0" fill="#0084ff" stroke-width="2" opacity="1"/></g><g class="mark-rule role-mark layer_1_layer_0_marks" role="graphics-object" aria-roledescription="rule mark container"><line aria-label="y: 99.9" role="graphics-symbol" aria-roledescription="rule mark" transform="translate(250,0.17999999999998018)" x2="-250" y2="0" stroke="gray" stroke-dasharray="2,2"/></g><g class="mark-text role-mark layer_1_layer_1_marks" role="graphics-object" aria-roledescription="text mark container"><text aria-label="y: 99.9" role="graphics-symbol" aria-roledescription="text mark" text-anchor="middle" transform="translate(125,14.17999999999998)" font-family="sans-serif" font-size="11px" fill="gray">No TL</text></g><g class="mark-group role-legend" role="graphics-symbol" aria-roledescription="legend" aria-label="Symbol legend for fill color and stroke color with 2 values: best_percent, worst_percent"><g transform="translate(18,150)"><path class="background" aria-hidden="true" d="M0,0h73v12h-73Z" pointer-events="none"/><g><g class="mark-group role-legend-entry"><g transform="translate(-5,-5)"><path class="background" aria-hidden="true" d="M0,0h0v0h0Z" pointer-events="none"/><g><g class="mark-group role-scope" role="graphics-object" aria-roledescription="group mark container"><g transform="translate(0,0)"><path class="background" aria-hidden="true" d="M0,0h82.97988891601562v10h-82.97988891601562Z" pointer-events="none" opacity="1"/><g><g class="mark-symbol role-legend-symbol" pointer-events="none"><path transform="translate(5,5)" d="M2.236,0A2.236,2.236,0,1,1,-2.236,0A2.236,2.236,0,1,1,2.236,0" fill="#1bb1a0" stroke="#1bb1a0" stroke-width="1.5" opacity="1"/></g><g class="mark-text role-legend-label" pointer-events="none"><text text-anchor="start" transform="translate(14,8)" font-family="sans-serif" font-size="10px" fill="#000" opacity="1">Closest sources</text></g></g><path class="foreground" aria-hidden="true" d="" pointer-events="none" display="none"/></g><g transform="translate(0,12)"><path class="background" aria-hidden="true" d="M0,0h82.97988891601562v10h-82.97988891601562Z" pointer-events="none" opacity="1"/><g><g class="mark-symbol role-legend-symbol" pointer-events="none"><path transform="translate(5,5)" d="M2.236,0A2.236,2.236,0,1,1,-2.236,0A2.236,2.236,0,1,1,2.236,0" fill="#0084ff" stroke="#0084ff" stroke-width="1.5" opacity="1"/></g><g class="mark-text role-legend-label" pointer-events="none"><text text-anchor="start" transform="translate(14,8)" font-family="sans-serif" font-size="10px" fill="#000" opacity="1">Farthest sources</text></g></g><path class="foreground" aria-hidden="true" d="" pointer-events="none" display="none"/></g></g></g><path class="foreground" aria-hidden="true" d="" pointer-events="none" display="none"/></g></g></g><path class="foreground" aria-hidden="true" d="" pointer-events="none" display="none"/></g></g></g><path class="foreground" aria-hidden="true" d="" display="none"/></g></g></g></svg>